<svg width="16" height="16" viewBox="0 0 16 16" fill="none" xmlns="http://www.w3.org/2000/svg">
<path d="M0.689313 5.551H1.35531C1.37331 5.809 1.46931 6.019 1.64331 6.181C1.82331 6.343 2.08131 6.424 2.41731 6.424C2.62131 6.424 2.78031 6.397 2.89431 6.343C3.01431 6.289 3.10131 6.217 3.15531 6.127C3.20931 6.031 3.23631 5.926 3.23631 5.812C3.23631 5.674 3.20031 5.566 3.12831 5.488C3.06231 5.404 2.96931 5.335 2.84931 5.281C2.73531 5.227 2.60331 5.176 2.45331 5.128C2.27931 5.062 2.09931 4.993 1.91331 4.921C1.73331 4.843 1.56231 4.753 1.40031 4.651C1.24431 4.543 1.11831 4.414 1.02231 4.264C0.926313 4.108 0.878313 3.922 0.878313 3.706C0.878313 3.526 0.914313 3.358 0.986313 3.202C1.05831 3.04 1.16031 2.902 1.29231 2.788C1.43031 2.668 1.58931 2.575 1.76931 2.509C1.95531 2.443 2.15931 2.41 2.38131 2.41C2.68131 2.41 2.93331 2.47 3.13731 2.59C3.34731 2.71 3.50631 2.881 3.61431 3.103C3.72831 3.319 3.78831 3.571 3.79431 3.859H3.17331C3.13131 3.589 3.04431 3.394 2.91231 3.274C2.78631 3.148 2.60331 3.085 2.36331 3.085C2.11731 3.085 1.92831 3.139 1.79631 3.247C1.66431 3.355 1.59831 3.499 1.59831 3.679C1.59831 3.811 1.64631 3.922 1.74231 4.012C1.83831 4.096 1.96131 4.174 2.11131 4.246C2.26731 4.312 2.43231 4.381 2.60631 4.453C2.78031 4.525 2.94831 4.597 3.11031 4.669C3.27231 4.741 3.41631 4.825 3.54231 4.921C3.66831 5.017 3.76731 5.137 3.83931 5.281C3.91731 5.419 3.95631 5.593 3.95631 5.803C3.95631 6.055 3.89631 6.28 3.77631 6.478C3.66231 6.67 3.49131 6.82 3.26331 6.928C3.04131 7.036 2.76831 7.09 2.44431 7.09C2.15031 7.09 1.89831 7.054 1.68831 6.982C1.48431 6.904 1.31331 6.805 1.17531 6.685C1.03731 6.559 0.929313 6.427 0.851313 6.289C0.779313 6.151 0.731313 6.016 0.707313 5.884C0.683313 5.752 0.677313 5.641 0.689313 5.551ZM5.81397 6.118V7H4.87797V6.118H5.81397ZM8.60045 7.09C8.24045 7.09 7.91045 6.991 7.61045 6.793C7.31645 6.589 7.08245 6.313 6.90845 5.965C6.73445 5.611 6.64745 5.209 6.64745 4.759C6.64745 4.309 6.73145 3.907 6.89945 3.553C7.06745 3.199 7.29845 2.92 7.59245 2.716C7.88645 2.512 8.22245 2.41 8.60045 2.41C8.93645 2.41 9.20945 2.473 9.41945 2.599C9.63545 2.719 9.80045 2.887 9.91445 3.103C10.0285 3.319 10.1065 3.568 10.1485 3.85C10.1965 4.132 10.2205 4.435 10.2205 4.759C10.2205 4.987 10.1965 5.236 10.1485 5.506C10.1005 5.77 10.0165 6.025 9.89645 6.271C9.78245 6.511 9.62045 6.709 9.41045 6.865C9.20045 7.015 8.93045 7.09 8.60045 7.09ZM8.78045 6.406C9.08645 6.406 9.33845 6.331 9.53645 6.181C9.74045 6.031 9.89045 5.833 9.98645 5.587C10.0825 5.335 10.1305 5.059 10.1305 4.759C10.1305 4.429 10.0795 4.141 9.97745 3.895C9.88145 3.643 9.73145 3.448 9.52745 3.31C9.32945 3.166 9.08045 3.094 8.78045 3.094C8.33045 3.094 7.98245 3.253 7.73645 3.571C7.49045 3.883 7.36745 4.279 7.36745 4.759C7.36745 5.077 7.42745 5.362 7.54745 5.614C7.67345 5.86 7.84145 6.055 8.05145 6.199C8.26745 6.337 8.51045 6.406 8.78045 6.406ZM10.1305 0.7H10.8505V7H10.1935C10.1815 6.868 10.1665 6.712 10.1485 6.532C10.1365 6.352 10.1305 6.208 10.1305 6.1V0.7ZM13.0913 6.118V7H12.1553V6.118H13.0913Z" fill="black"/>
</svg>
