<svg width="16" height="9" viewBox="0 0 16 9" fill="none" xmlns="http://www.w3.org/2000/svg">
<path d="M0.637531 6.3095H1.41453C1.43553 6.6105 1.54753 6.8555 1.75053 7.0445C1.96053 7.2335 2.26153 7.328 2.65353 7.328C2.89153 7.328 3.07703 7.2965 3.21003 7.2335C3.35003 7.1705 3.45153 7.0865 3.51453 6.9815C3.57753 6.8695 3.60903 6.747 3.60903 6.614C3.60903 6.453 3.56703 6.327 3.48303 6.236C3.40603 6.138 3.29753 6.0575 3.15753 5.9945C3.02453 5.9315 2.87053 5.872 2.69553 5.816C2.49253 5.739 2.28253 5.6585 2.06553 5.5745C1.85553 5.4835 1.65603 5.3785 1.46703 5.2595C1.28503 5.1335 1.13803 4.983 1.02603 4.808C0.914031 4.626 0.858031 4.409 0.858031 4.157C0.858031 3.947 0.900031 3.751 0.984031 3.569C1.06803 3.38 1.18703 3.219 1.34103 3.086C1.50203 2.946 1.68753 2.8375 1.89753 2.7605C2.11453 2.6835 2.35253 2.645 2.61153 2.645C2.96153 2.645 3.25553 2.715 3.49353 2.855C3.73853 2.995 3.92403 3.1945 4.05003 3.4535C4.18303 3.7055 4.25303 3.9995 4.26003 4.3355H3.53553C3.48653 4.0205 3.38503 3.793 3.23103 3.653C3.08403 3.506 2.87053 3.4325 2.59053 3.4325C2.30353 3.4325 2.08303 3.4955 1.92903 3.6215C1.77503 3.7475 1.69803 3.9155 1.69803 4.1255C1.69803 4.2795 1.75403 4.409 1.86603 4.514C1.97803 4.612 2.12153 4.703 2.29653 4.787C2.47853 4.864 2.67103 4.9445 2.87403 5.0285C3.07703 5.1125 3.27303 5.1965 3.46203 5.2805C3.65103 5.3645 3.81903 5.4625 3.96603 5.5745C4.11303 5.6865 4.22853 5.8265 4.31253 5.9945C4.40353 6.1555 4.44903 6.3585 4.44903 6.6035C4.44903 6.8975 4.37903 7.16 4.23903 7.391C4.10603 7.615 3.90653 7.79 3.64053 7.916C3.38153 8.042 3.06303 8.105 2.68503 8.105C2.34203 8.105 2.04803 8.063 1.80303 7.979C1.56503 7.888 1.36553 7.7725 1.20453 7.6325C1.04353 7.4855 0.917531 7.3315 0.826531 7.1705C0.742531 7.0095 0.686531 6.852 0.658531 6.698C0.630531 6.544 0.623531 6.4145 0.637531 6.3095ZM6.6163 6.971V8H5.5243V6.971H6.6163ZM9.8672 8.105C9.4472 8.105 9.0622 7.9895 8.7122 7.7585C8.3692 7.5205 8.0962 7.1985 7.8932 6.7925C7.6902 6.3795 7.5887 5.9105 7.5887 5.3855C7.5887 4.8605 7.6867 4.3915 7.8827 3.9785C8.0787 3.5655 8.3482 3.24 8.6912 3.002C9.0342 2.764 9.4262 2.645 9.8672 2.645C10.2592 2.645 10.5777 2.7185 10.8227 2.8655C11.0747 3.0055 11.2672 3.2015 11.4002 3.4535C11.5332 3.7055 11.6242 3.996 11.6732 4.325C11.7292 4.654 11.7572 5.0075 11.7572 5.3855C11.7572 5.6515 11.7292 5.942 11.6732 6.257C11.6172 6.565 11.5192 6.8625 11.3792 7.1495C11.2462 7.4295 11.0572 7.6605 10.8122 7.8425C10.5672 8.0175 10.2522 8.105 9.8672 8.105ZM10.0772 7.307C10.4342 7.307 10.7282 7.2195 10.9592 7.0445C11.1972 6.8695 11.3722 6.6385 11.4842 6.3515C11.5962 6.0575 11.6522 5.7355 11.6522 5.3855C11.6522 5.0005 11.5927 4.6645 11.4737 4.3775C11.3617 4.0835 11.1867 3.856 10.9487 3.695C10.7177 3.527 10.4272 3.443 10.0772 3.443C9.5522 3.443 9.1462 3.6285 8.8592 3.9995C8.5722 4.3635 8.4287 4.8255 8.4287 5.3855C8.4287 5.7565 8.4987 6.089 8.6387 6.383C8.7857 6.67 8.9817 6.8975 9.2267 7.0655C9.4787 7.2265 9.7622 7.307 10.0772 7.307ZM11.6522 0.649999H12.4922V8H11.7257C11.7117 7.846 11.6942 7.664 11.6732 7.454C11.6592 7.244 11.6522 7.076 11.6522 6.95V0.649999ZM15.1065 6.971V8H14.0145V6.971H15.1065Z" fill="black"/>
</svg>
